# xmcd
#
# Track frame offsets: 
#        150
#        33214
#        62316
#        84460
#        94657
#        120041
#        148447
#        175209
#        202898
#        236625
#        262759
#        283489
#        306261
#
# Disc length: 4248 seconds
#
# Revision: 2
# Processed by: cddbd v1.5.2PL0 Copyright (c) Steve Scherf et al.
# Submitted via: ExactAudioCopy v1.0b3
#
DISCID=ab10960d
DTITLE=Ricardo Lew - Forever Wes
DYEAR=2005
DGENRE=Jazz
TTITLE0=Forever Wes
TTITLE1=Impressions
TTITLE2=Pra Elis
TTITLE3=Waltz for Debby
TTITLE4=Mr. Chilk
TTITLE5=Alma de mujer
TTITLE6=My funny Valentine
TTITLE7=Spain
TTITLE8=Muchacha ojos de papel
TTITLE9=Madera noruega
TTITLE10=Aquella mujer
TTITLE11=El día que me quieras
TTITLE12=Sobre el arco iris
EXTD=YEAR: 2005
EXTT0=
EXTT1=
EXTT2=
EXTT3=
EXTT4=
EXTT5=
EXTT6=
EXTT7=
EXTT8=
EXTT9=
EXTT10=
EXTT11=
EXTT12=
PLAYORDER=
